<svg xmlns="http://www.w3.org/2000/svg" width="25" height="25" viewBox="0 0 512 512" version="1.1"><path d="" stroke="none" fill="#080404" fill-rule="evenodd"/><path d="M 233 104.104 C 162.682 110.238, 95.466 144.379, 39 202.639 C 21.717 220.471, 3.080 243.029, 0.906 248.748 C -0.848 253.362, -0.126 261.238, 2.468 265.775 C 6.950 273.614, 24.322 294.327, 39.429 309.844 C 153.223 426.727, 305.974 441.313, 430.500 347.187 C 456.501 327.534, 483.523 300.526, 504.224 273.500 C 511.444 264.074, 513 260.671, 513 254.303 C 513 251.203, 512.699 248.968, 512.331 249.335 C 511.963 249.703, 510.633 248.192, 509.375 245.977 C 505.086 238.427, 487.517 217.508, 472.571 202.156 C 403.730 131.447, 318.663 96.630, 233 104.104 M 237.306 150.421 C 215.264 154.617, 196.017 164.748, 180.383 180.383 C 161.212 199.553, 150.570 223.586, 149.294 250.589 C 148.617 264.927, 149.982 275.781, 154.063 288.500 C 165.504 324.153, 193.498 350.318, 230.670 360.102 C 241.703 363.006, 261.660 363.727, 273.500 361.650 C 296.119 357.683, 315.464 347.657, 331.561 331.561 C 379.821 283.300, 371.445 203.533, 314.199 166.218 C 304.841 160.119, 293.126 155.010, 281.330 151.885 C 271.181 149.196, 247.820 148.419, 237.306 150.421 M 244.500 198.690 C 234.115 201.068, 222.500 207.500, 214.940 215.060 C 192.295 237.705, 192.306 274.380, 214.963 297.037 C 237.653 319.728, 274.293 319.707, 297.009 296.991 C 307.889 286.111, 312.977 274.547, 313.729 258.988 C 314.620 240.552, 309.755 227.747, 297.007 214.983 C 285.108 203.068, 272.401 197.900, 255.540 198.116 C 250.568 198.180, 245.600 198.438, 244.500 198.690 M 0.320 256 C 0.320 259.575, 0.502 261.038, 0.723 259.250 C 0.945 257.462, 0.945 254.537, 0.723 252.750 C 0.502 250.963, 0.320 252.425, 0.320 256" stroke="none" fill="#040404" fill-rule="evenodd"/></svg>