<svg xmlns="http://www.w3.org/2000/svg" width="25" height="25" viewBox="0 0 512 512" version="1.1"><path d="" stroke="none" fill="#080404" fill-rule="evenodd"/><path d="M 237.191 43.056 C 203.711 46.036, 166.150 59.140, 138.712 77.415 C 82.536 114.829, 48.262 173.427, 42.884 241.250 C 40.438 272.093, 46.801 311.089, 58.665 337.959 L 61.075 343.418 113.790 290.710 L 166.506 238.001 196.751 268.247 L 226.996 298.492 260.498 265.002 C 278.924 246.582, 294 231.063, 294 230.515 C 294 229.967, 285.567 221.077, 275.260 210.760 L 256.520 192 309.260 192 L 362 192 362 244.747 L 362 297.493 343.254 278.747 L 324.507 260 275.755 308.745 L 227.002 357.490 196.746 327.246 L 166.489 297.002 124.614 338.886 C 94.613 368.893, 82.969 381.157, 83.550 382.135 C 83.996 382.886, 87.080 386.875, 90.403 391 C 133.046 443.924, 202.741 474.195, 270.244 469.112 C 377.943 461.002, 460.801 378.342, 469.083 270.750 C 473.123 218.253, 455.621 162.890, 421.810 121.212 C 388.536 80.196, 339.305 52.217, 287 44.595 C 273.382 42.610, 250.235 41.895, 237.191 43.056" stroke="none" fill="#040404" fill-rule="evenodd"/></svg>