<svg xmlns="http://www.w3.org/2000/svg" width="128" height="128" viewBox="0 0 128 128" version="1.1"><path d="M 15.359 50.923 C 13.632 51.976, 11.918 53.324, 11.550 53.919 C 10.696 55.300, 14.003 55.329, 17.574 53.972 C 19.061 53.407, 20.457 53.124, 20.678 53.344 C 20.898 53.564, 20.160 57.055, 19.039 61.102 C 17.918 65.149, 17 70.638, 17 73.299 C 17 77.726, 17.189 78.112, 19.217 77.820 C 21.794 77.448, 22.337 75.714, 24.087 62.250 L 25.290 53 30.038 53 C 34.357 53, 36 52.013, 36 49.418 C 36 49.188, 32.063 49.002, 27.250 49.004 C 20.394 49.007, 17.820 49.422, 15.359 50.923 M 60.346 54.555 C 58.903 57.708, 57.502 62.360, 57.234 64.894 C 56.667 70.239, 54.662 73, 51.345 73 C 49.395 73, 49 72.484, 49 69.934 C 49 65.249, 50.493 63.180, 53.465 63.748 C 55.542 64.146, 56 63.845, 56 62.085 C 56 59.136, 53.450 58.415, 49.566 60.267 C 46.414 61.770, 43 67.029, 43 70.382 C 43 72.069, 39.347 73.406, 36.329 72.825 C 33.416 72.264, 34.203 69.929, 37.909 68.143 C 42.292 66.031, 43.869 63.606, 42.394 61.250 C 40.399 58.064, 36.289 58.511, 32.469 62.331 C 29.521 65.279, 29 66.487, 29 70.377 C 29 76.277, 31.845 78.540, 37.962 77.506 C 40.177 77.132, 42.221 76.452, 42.504 75.994 C 42.786 75.537, 44.417 75.860, 46.126 76.713 C 48.624 77.959, 49.940 78.047, 52.826 77.161 C 55.566 76.320, 56.599 76.349, 57.181 77.279 C 58.699 79.710, 61.472 76.529, 62.039 71.707 C 62.551 67.354, 65.174 63, 67.284 63 C 67.882 63, 68.001 65.278, 67.592 68.891 C 67.072 73.489, 67.259 75.116, 68.445 76.302 C 69.981 77.839, 73.536 77.560, 74.612 75.819 C 74.931 75.303, 75.751 75.645, 76.435 76.580 C 77.390 77.886, 78.107 78.040, 79.529 77.244 C 80.888 76.483, 81.403 74.985, 81.466 71.606 C 81.529 68.268, 82.160 66.395, 83.765 64.790 C 86.835 61.720, 88.284 63.386, 86.901 68.397 C 84.947 75.473, 87.383 79.070, 92.376 76.480 C 94.606 75.323, 95.413 75.334, 97.750 76.553 C 101.444 78.480, 103.892 78.363, 107.635 76.081 C 109.359 75.029, 111.788 74.019, 113.033 73.835 C 115.486 73.472, 117.882 70.549, 116.698 69.365 C 116.296 68.962, 115.434 69.166, 114.783 69.817 C 112.856 71.744, 111.918 71.175, 112.593 68.487 C 113.377 65.363, 111.552 63, 108.356 63 C 105.126 63, 103.223 66.998, 104.802 70.464 C 106.146 73.415, 104.903 74.554, 102.021 73.011 C 97.340 70.506, 101.429 62, 107.314 62 C 110.500 62, 110.876 60.413, 107.913 59.472 C 101.948 57.579, 95.688 61.818, 94.413 68.612 C 93.820 71.771, 92.421 73.754, 91.461 72.794 C 91.237 72.570, 91.528 70.673, 92.106 68.577 C 92.685 66.482, 92.891 63.701, 92.564 62.399 C 91.867 59.624, 88.098 58.342, 85.198 59.894 C 83.662 60.716, 82.912 60.599, 81.897 59.376 C 80.716 57.952, 80.412 58.009, 78.847 59.940 C 77.892 61.121, 76.811 64.077, 76.446 66.511 C 75.849 70.492, 73.664 73.997, 72.503 72.836 C 72.256 72.589, 72.528 70.673, 73.106 68.577 C 73.685 66.482, 73.891 63.701, 73.564 62.399 C 72.864 59.609, 69.094 58.344, 66.159 59.915 C 63.065 61.571, 62.813 61.263, 64.534 57.934 C 66.314 54.492, 66.155 49.869, 64.235 49.239 C 63.479 48.991, 61.914 51.130, 60.346 54.555 M 35.459 64.067 C 35.096 64.653, 35.040 65.373, 35.333 65.667 C 36.050 66.383, 38 65.121, 38 63.941 C 38 62.663, 36.274 62.748, 35.459 64.067 M 109.079 67.583 C 109.127 68.748, 109.364 68.985, 109.683 68.188 C 109.972 67.466, 109.936 66.603, 109.604 66.271 C 109.272 65.939, 109.036 66.529, 109.079 67.583" stroke="none" fill="#fcf4eb" fill-rule="evenodd"/><path d="M 45.500 2.376 C 23.526 9.554, 8.885 24.396, 2.114 46.355 C -0.841 55.939, -0.841 72.061, 2.114 81.645 C 8.959 103.843, 24.157 119.041, 46.355 125.886 C 55.939 128.841, 72.061 128.841, 81.645 125.886 C 103.313 119.205, 119.010 103.825, 125.415 83 C 126.345 79.975, 127.533 76.719, 128.053 75.764 C 129.115 73.816, 129.380 50.287, 128.328 51.338 C 127.959 51.708, 126.685 48.970, 125.497 45.255 C 118.603 23.693, 103.527 8.861, 81.645 2.114 C 71.799 -0.922, 55.228 -0.802, 45.500 2.376 M 15.359 50.923 C 13.632 51.976, 11.918 53.324, 11.550 53.919 C 10.696 55.300, 14.003 55.329, 17.574 53.972 C 19.061 53.407, 20.457 53.124, 20.678 53.344 C 20.898 53.564, 20.160 57.055, 19.039 61.102 C 17.918 65.149, 17 70.638, 17 73.299 C 17 77.726, 17.189 78.112, 19.217 77.820 C 21.794 77.448, 22.337 75.714, 24.087 62.250 L 25.290 53 30.038 53 C 34.357 53, 36 52.013, 36 49.418 C 36 49.188, 32.063 49.002, 27.250 49.004 C 20.394 49.007, 17.820 49.422, 15.359 50.923 M 60.346 54.555 C 58.903 57.708, 57.502 62.360, 57.234 64.894 C 56.667 70.239, 54.662 73, 51.345 73 C 49.395 73, 49 72.484, 49 69.934 C 49 65.249, 50.493 63.180, 53.465 63.748 C 55.542 64.146, 56 63.845, 56 62.085 C 56 59.136, 53.450 58.415, 49.566 60.267 C 46.414 61.770, 43 67.029, 43 70.382 C 43 72.069, 39.347 73.406, 36.329 72.825 C 33.416 72.264, 34.203 69.929, 37.909 68.143 C 42.292 66.031, 43.869 63.606, 42.394 61.250 C 40.399 58.064, 36.289 58.511, 32.469 62.331 C 29.521 65.279, 29 66.487, 29 70.377 C 29 76.277, 31.845 78.540, 37.962 77.506 C 40.177 77.132, 42.221 76.452, 42.504 75.994 C 42.786 75.537, 44.417 75.860, 46.126 76.713 C 48.624 77.959, 49.940 78.047, 52.826 77.161 C 55.566 76.320, 56.599 76.349, 57.181 77.279 C 58.699 79.710, 61.472 76.529, 62.039 71.707 C 62.551 67.354, 65.174 63, 67.284 63 C 67.882 63, 68.001 65.278, 67.592 68.891 C 67.072 73.489, 67.259 75.116, 68.445 76.302 C 69.981 77.839, 73.536 77.560, 74.612 75.819 C 74.931 75.303, 75.751 75.645, 76.435 76.580 C 77.390 77.886, 78.107 78.040, 79.529 77.244 C 80.888 76.483, 81.403 74.985, 81.466 71.606 C 81.529 68.268, 82.160 66.395, 83.765 64.790 C 86.835 61.720, 88.284 63.386, 86.901 68.397 C 84.947 75.473, 87.383 79.070, 92.376 76.480 C 94.606 75.323, 95.413 75.334, 97.750 76.553 C 101.444 78.480, 103.892 78.363, 107.635 76.081 C 109.359 75.029, 111.788 74.019, 113.033 73.835 C 115.486 73.472, 117.882 70.549, 116.698 69.365 C 116.296 68.962, 115.434 69.166, 114.783 69.817 C 112.856 71.744, 111.918 71.175, 112.593 68.487 C 113.377 65.363, 111.552 63, 108.356 63 C 105.126 63, 103.223 66.998, 104.802 70.464 C 106.146 73.415, 104.903 74.554, 102.021 73.011 C 97.340 70.506, 101.429 62, 107.314 62 C 110.500 62, 110.876 60.413, 107.913 59.472 C 101.948 57.579, 95.688 61.818, 94.413 68.612 C 93.820 71.771, 92.421 73.754, 91.461 72.794 C 91.237 72.570, 91.528 70.673, 92.106 68.577 C 92.685 66.482, 92.891 63.701, 92.564 62.399 C 91.867 59.624, 88.098 58.342, 85.198 59.894 C 83.662 60.716, 82.912 60.599, 81.897 59.376 C 80.716 57.952, 80.412 58.009, 78.847 59.940 C 77.892 61.121, 76.811 64.077, 76.446 66.511 C 75.849 70.492, 73.664 73.997, 72.503 72.836 C 72.256 72.589, 72.528 70.673, 73.106 68.577 C 73.685 66.482, 73.891 63.701, 73.564 62.399 C 72.864 59.609, 69.094 58.344, 66.159 59.915 C 63.065 61.571, 62.813 61.263, 64.534 57.934 C 66.314 54.492, 66.155 49.869, 64.235 49.239 C 63.479 48.991, 61.914 51.130, 60.346 54.555 M 0.385 64 C 0.385 70.875, 0.545 73.688, 0.740 70.250 C 0.936 66.813, 0.936 61.188, 0.740 57.750 C 0.545 54.313, 0.385 57.125, 0.385 64 M 35.459 64.067 C 35.096 64.653, 35.040 65.373, 35.333 65.667 C 36.050 66.383, 38 65.121, 38 63.941 C 38 62.663, 36.274 62.748, 35.459 64.067 M 109.079 67.583 C 109.127 68.748, 109.364 68.985, 109.683 68.188 C 109.972 67.466, 109.936 66.603, 109.604 66.271 C 109.272 65.939, 109.036 66.529, 109.079 67.583" stroke="none" fill="#fc7b05" fill-rule="evenodd"/></svg>