<svg xmlns="http://www.w3.org/2000/svg" width="25" height="25" viewBox="0 0 512 512" version="1.1"><path d="" stroke="none" fill="#080404" fill-rule="evenodd"/><path d="M 116.500 52.469 C 87.342 58.936, 64.748 79.268, 54.792 108 L 51.500 117.500 51.206 176.750 L 50.911 236 159.456 236 C 219.155 236, 268 235.674, 268 235.275 C 268 234.876, 256.571 223.064, 242.603 209.025 C 218.528 184.828, 217.154 183.246, 216.195 178.613 C 212.834 162.371, 228.858 149.053, 243.500 155.920 C 248.448 158.241, 334.402 244.140, 335.954 248.315 C 337.298 251.933, 337.298 260.067, 335.954 263.685 C 334.402 267.860, 248.448 353.759, 243.500 356.080 C 228.858 362.947, 212.834 349.629, 216.195 333.387 C 217.154 328.754, 218.528 327.172, 242.603 302.975 C 256.571 288.936, 268 277.124, 268 276.725 C 268 276.326, 219.155 276, 159.456 276 L 50.911 276 51.206 335.250 L 51.500 394.500 54.792 404 C 63.726 429.784, 82.216 448.274, 108 457.208 L 117.500 460.500 256 460.500 L 394.500 460.500 404 457.208 C 416.935 452.726, 427.760 446.046, 436.903 436.903 C 446.046 427.760, 452.726 416.935, 457.208 404 L 460.500 394.500 460.500 256 L 460.500 117.500 457.208 108 C 448.274 82.216, 429.784 63.726, 404 54.792 L 394.500 51.500 258.500 51.319 C 148.453 51.172, 121.355 51.392, 116.500 52.469" stroke="none" fill="#040404" fill-rule="evenodd"/></svg>