<svg xmlns="http://www.w3.org/2000/svg" width="25" height="25" viewBox="0 0 512 512" version="1.1"><path d="" stroke="none" fill="#080404" fill-rule="evenodd"/><path d="M 223.972 13.351 C 208.862 20.694, 189.993 29.969, 182.040 33.963 L 167.580 41.224 170.540 42.776 C 198.361 57.366, 399.754 160, 400.561 160 C 401.178 160, 422.342 149.818, 447.591 137.374 L 493.500 114.749 456 96.108 C 435.375 85.856, 383.175 60.031, 340 38.720 C 267.981 3.170, 261.085 -0.028, 256.472 -0.014 C 252.071 -0.002, 248.013 1.667, 223.972 13.351 M 71.500 88.554 L 18.500 114.814 40 125.286 C 51.825 131.045, 105.147 157.436, 158.492 183.931 L 255.485 232.105 265.492 227.449 C 287.814 217.063, 356.336 182.438, 356.255 181.586 C 356.180 180.803, 285.731 144.483, 157 78.861 L 124.500 62.294 71.500 88.554 M -0 268.377 L -0 388.595 117.640 450.048 C 182.342 483.846, 235.668 511.651, 236.144 511.835 C 236.627 512.022, 236.896 457.698, 236.754 388.500 L 236.500 264.830 159.500 226.821 C 117.150 205.915, 63.938 179.664, 41.250 168.485 L 0 148.159 -0 268.377 M 463.789 171.780 L 416.078 195.287 415.789 239.393 C 415.463 289.099, 415.565 288.405, 407.748 294.067 C 398.058 301.087, 384.869 297.525, 379.880 286.541 C 378.216 282.880, 378.042 279.330, 378.022 248.750 C 378.010 230.188, 377.658 215, 377.240 215 C 375.966 215, 276.590 264.089, 275.237 265.387 C 274.225 266.357, 274.108 291.049, 274.652 389.327 C 275.025 456.828, 275.688 511.931, 276.125 511.778 C 276.563 511.625, 327.817 484.950, 390.023 452.500 C 467.647 412.008, 504.209 392.424, 506.577 390.069 C 508.475 388.182, 510.491 385.032, 511.056 383.069 C 511.741 380.690, 511.987 340.954, 511.792 263.887 L 511.500 148.274 463.789 171.780" stroke="none" fill="#040404" fill-rule="evenodd"/></svg>