<svg xmlns="http://www.w3.org/2000/svg" width="25" height="25" viewBox="0 0 512 512" version="1.1"><path d="" stroke="none" fill="#080404" fill-rule="evenodd"/><path d="M 240.365 108.493 C 226.016 111.614, 213.876 118.268, 202.949 129 C 179.673 151.863, 173.849 186.939, 188.504 215.998 C 196.166 231.191, 207.647 242.675, 222.417 249.919 C 234.629 255.909, 241.421 257.427, 256 257.427 C 270.579 257.427, 277.371 255.909, 289.583 249.919 C 328.776 230.696, 343.147 181.685, 320.785 143.500 C 315.926 135.202, 303.755 122.882, 295.736 118.145 C 278.884 108.190, 258.277 104.598, 240.365 108.493 M 109.500 165.036 C 86.571 168.103, 68.442 184.276, 62.459 207 C 60.094 215.982, 60.057 231.713, 62.382 239.448 C 68.336 259.248, 82.994 273.524, 102.460 278.482 C 110.115 280.432, 123.942 280.427, 131.448 278.472 C 145.853 274.719, 160.239 263.659, 166.776 251.310 L 170.053 245.121 166.332 239.311 C 157.250 225.129, 152.186 208.073, 151.295 188.670 L 150.706 175.840 146.740 173.336 C 135.882 166.482, 121.931 163.372, 109.500 165.036 M 386.500 165.033 C 378.867 166.050, 370.358 169.233, 365.105 173.039 L 361 176.013 360.992 183.756 C 360.977 199.615, 356.742 215.865, 348.034 233.476 L 342.112 245.453 345.241 250.976 C 346.962 254.014, 351.549 259.664, 355.435 263.530 C 366.922 274.961, 379.083 280, 395.184 280 C 411.327 280, 424.661 274.343, 435.433 262.924 C 446.307 251.397, 451.398 238.083, 451.272 221.500 C 451.009 186.780, 420.821 160.462, 386.500 165.033 M 237.500 273.013 C 212.887 277.454, 190.693 289.285, 173.474 307.140 C 153.641 327.707, 143.523 349.844, 140.890 378.430 C 139.356 395.089, 141.484 401.044, 150.421 405.104 C 154.304 406.867, 159.310 406.957, 254.500 406.972 C 317.114 406.983, 355.825 406.621, 358.044 406.004 C 362.065 404.887, 367.360 399.872, 368.939 395.685 C 371.438 389.057, 369.680 368.059, 365.375 353.112 C 360.203 335.155, 351.146 320.042, 337.066 305.875 C 321.922 290.638, 305.854 281.259, 284.894 275.422 C 276.898 273.196, 273.044 272.755, 259 272.459 C 249.925 272.268, 240.250 272.517, 237.500 273.013 M 101.342 290.412 C 72.353 295.946, 50.201 313.018, 38.093 339.156 C 33.013 350.122, 30.992 358.316, 30.362 370.500 C 29.754 382.278, 31.169 386.040, 37.604 389.741 C 41.452 391.955, 41.909 391.979, 75 391.741 L 108.500 391.500 109.254 380 C 111.172 350.730, 119.781 325.236, 135.440 302.450 C 141.561 293.545, 141.623 293.789, 132.612 291.379 C 124.845 289.302, 109.622 288.831, 101.342 290.412 M 383.763 289.964 C 381.158 290.441, 376.808 291.567, 374.097 292.468 L 369.167 294.105 375.065 302.303 C 378.309 306.811, 383.412 315.450, 386.405 321.500 C 395.688 340.266, 399.792 356.683, 400.725 378.786 L 401.286 392.073 436.071 391.786 C 469.640 391.510, 470.955 391.426, 473.678 389.395 C 478.987 385.436, 480.442 381.556, 480.181 372.052 C 479.155 334.619, 452.675 301.556, 416.015 291.932 C 407.479 289.691, 390.817 288.674, 383.763 289.964" stroke="none" fill="#040404" fill-rule="evenodd"/></svg>